<svg width="24" height="24" viewBox="0 0 24 24" fill="none" xmlns="http://www.w3.org/2000/svg">
<path d="M6.71361 15.0625L15.4992 23.9994H1.5L6.71361 15.0625Z" fill="#F27B0D"/>
<path d="M22.4994 11.9994L15.4998 23.9989L8.50365 12.0065L8.4994 11.9994L15.4998 0.00195312L15.5041 0.0112083L22.4994 11.9994Z" fill="url(#paint0_linear_283_28766)"/>
<path d="M22.5 11.9994L15.5004 23.9989L8.50466 12.0065L8.50041 11.9994L6.70977 8.93007L1.50041 0.00195312H15.5L15.5042 0.0112083L22.5 11.9994Z" fill="url(#paint1_linear_283_28766)"/>
<path d="M15.5042 0.0092552L8.50632 12.0067L8.50208 11.9995L6.71143 8.93022L15.4893 0H15.5017L15.5042 0.0092552Z" fill="#F27B0D"/>
<defs>
<linearGradient id="paint0_linear_283_28766" x1="8.4994" y1="12.0004" x2="22.4994" y2="12.0004" gradientUnits="userSpaceOnUse">
<stop stop-color="#004C9A"/>
<stop offset="1" stop-color="#0062AD"/>
</linearGradient>
<linearGradient id="paint1_linear_283_28766" x1="1.50041" y1="12.0004" x2="22.5" y2="12.0004" gradientUnits="userSpaceOnUse">
<stop stop-color="#004C9A"/>
<stop offset="1" stop-color="#0062AD"/>
</linearGradient>
</defs>
</svg>
